<svg xmlns="http://www.w3.org/2000/svg" width="80" height="27" fill="none"><path fill="#4E8EE5" d="M75.397 8.568c-.608 2.698-1.147 5.327-1.821 8.301 1.753-.207 2.765-1.314 3.17-2.56 1.213-3.735 2.36-7.54 3.169-11.413.472-2.214-1.08-3.39-3.17-2.698-3.507 1.107-6.946 2.421-10.453 3.666-.202.07-.472.138-.54.277-.336.484-.539 1.037-.808 1.59.471.208.944.693 1.348.623 1.416-.207 2.765-.553 4.114-.83.742-.138 1.416-.346 2.495 0-.742.83-1.483 1.73-2.225 2.56-16.05 16.464-40.126 19.923-60.088 8.785-2.563-1.452-4.923-3.182-7.418-4.773-.877-.553-1.754-1.037-2.63-1.59-.203.137-.338.345-.54.483.202.623.27 1.453.742 1.868 1.483 1.453 2.967 2.905 4.653 4.15C22.12 29.46 45.386 29.945 63.392 18.046c3.44-2.283 6.474-5.188 9.644-7.817.674-.553 1.214-1.176 1.821-1.798.135-.07.337 0 .54.138Z"/></svg>