<svg width="27" height="81" viewBox="0 0 27 81" fill="none" xmlns="http://www.w3.org/2000/svg">
<path d="M17.5584 74.4238C20.0073 73.1392 22.4068 71.9378 25.1054 70.5165C25.3588 72.2639 24.5515 73.5274 23.4535 74.2405C20.1594 76.3799 16.7811 78.472 13.2487 80.2564C11.2326 81.2853 9.69525 80.0914 9.82236 77.893C9.98383 74.2192 10.3632 70.5569 10.6583 66.8473C10.6728 66.6339 10.6698 66.3555 10.786 66.2545C11.1665 65.8035 11.6486 65.4648 12.1134 65.061C12.436 65.4633 13.0259 65.794 13.0638 66.2027C13.2299 67.6244 13.2449 69.0167 13.3267 70.3911C13.3851 71.1435 13.3592 71.8486 13.9725 72.8014C14.5824 71.87 15.259 70.9207 15.8689 69.9893C27.6177 50.2246 24.7274 26.0741 8.80302 9.67498C6.73654 7.57561 4.45516 5.74329 2.27251 3.74488C1.51104 3.04128 0.816402 2.31978 0.0549397 1.61618C0.136216 1.38495 0.301762 1.20096 0.383037 0.969726C1.03677 1.00401 1.85606 0.854303 2.37915 1.20286C4.16635 2.25997 5.95356 3.31708 7.59266 4.62333C23.9488 17.5555 30.4383 39.9037 23.6057 60.3758C22.2909 64.2889 20.2699 67.9722 18.5512 71.7142C18.1911 72.5088 17.7294 73.1911 17.2851 73.9385C17.2532 74.0866 17.3724 74.2642 17.5584 74.4238Z" fill="#4E8EE5"/>
</svg>
