<svg xmlns="http://www.w3.org/2000/svg" width="268" height="72" fill="none"><g filter="url(#a)"><g clip-path="url(#b)"><g clip-path="url(#c)"><rect width="63.81" height="64" x="4" y="3" fill="url(#d)" rx="6"/><rect width="63.81" height="64" x="4" y="3" fill="url(#e)" opacity=".5" rx="6"/><rect width="63.81" height="64" x="4" y="3" fill="url(#f)" opacity=".5" rx="6"/><rect width="63.81" height="64" x="4" y="3" fill="url(#g)" opacity=".5" rx="6"/></g><g clip-path="url(#h)"><g filter="url(#i)" opacity=".8"><path fill="#fff" fill-rule="evenodd" d="M37.881 35a6 6 0 0 1 6 6v8a6 6 0 0 1-6 6H22.663l-4.554 4.304c-.297.28-.796.115-.855-.284l-.295-2.013-.285-2.149A6.002 6.002 0 0 1 11.976 49v-8a6 6 0 0 1 6-6h19.905Z" clip-rule="evenodd"/></g><path fill="#8FB8F0" fill-rule="evenodd" d="M19.459 41a1.5 1.5 0 1 0 0 3h16.94a1.5 1.5 0 0 0 0-3H19.46Zm0 6a1.5 1.5 0 1 0 0 3h8.964a1.5 1.5 0 0 0 0-3h-8.964Z" clip-rule="evenodd"/></g><g clip-path="url(#j)"><g filter="url(#k)"><path fill="#fff" fill-rule="evenodd" d="M33.929 11a6 6 0 0 0-6 6v8a6 6 0 0 0 6 6h15.218l4.554 4.304c.297.28.796.115.855-.284l.295-2.013.285-2.149A6.002 6.002 0 0 0 59.834 25v-8a6 6 0 0 0-6-6H33.929Z" clip-rule="evenodd"/></g><g clip-path="url(#l)"><path fill="#56C75A" fill-rule="evenodd" d="M51.193 21c0-4.05-3.274-7.333-7.312-7.333S36.57 16.95 36.57 21c0 4.05 3.273 7.333 7.311 7.333S51.193 25.05 51.193 21Zm-3.252-1.965-4.843 4.979a.175.175 0 0 1-.25 0l-3.026-3.11a.175.175 0 0 1 0-.245l.783-.805a.175.175 0 0 1 .251 0l2.117 2.176 3.934-4.044a.175.175 0 0 1 .25 0l.784.805a.175.175 0 0 1 0 .244Z" clip-rule="evenodd"/></g></g></g><path fill="#4E8EE5" d="M105.051 22.564h5.456L99.954 46.756H98.34L87.751 22.564h5.492l5.922 14.4 5.886-14.4ZM126.159 46.324l-1.328-3.096h-9.692l-1.328 3.096h-5.204l10.588-24.192h1.615l10.553 24.192h-5.204Zm-3.015-7.092-3.159-8.028-3.159 8.028h6.318ZM146.431 46.324V26.956h-7.574v-4.392h20.029v4.392h-7.609v19.368h-4.846ZM174.443 35.74v10.584h-4.45v-1.728c-1.388 1.44-3.195 2.16-5.42 2.16-1.867 0-3.362-.492-4.487-1.476-1.101-.984-1.651-2.268-1.651-3.852 0-1.608.598-2.868 1.795-3.78 1.22-.936 2.859-1.404 4.917-1.404h4.451v-.792c0-1.008-.287-1.776-.862-2.304-.55-.552-1.364-.828-2.44-.828-.886 0-1.687.192-2.405.576-.718.384-1.484 1.008-2.297 1.872l-2.513-2.988c2.058-2.448 4.642-3.672 7.753-3.672 2.345 0 4.2.672 5.563 2.016 1.364 1.32 2.046 3.192 2.046 5.616Zm-4.845 3.924v-.216h-3.805c-1.651 0-2.477.6-2.477 1.8 0 .6.228 1.08.682 1.44.479.336 1.101.504 1.867.504 1.077 0 1.962-.324 2.656-.972.718-.672 1.077-1.524 1.077-2.556ZM177.491 43.3l2.441-2.952c1.532 1.608 3.195 2.412 4.989 2.412.67 0 1.209-.12 1.616-.36.43-.264.646-.636.646-1.116 0-.36-.132-.636-.395-.828-.239-.216-.718-.48-1.436-.792l-1.902-.792c-1.699-.696-2.932-1.452-3.697-2.268-.766-.84-1.149-1.896-1.149-3.168 0-1.656.598-2.952 1.795-3.888 1.196-.96 2.776-1.44 4.738-1.44 2.632 0 4.762.888 6.389 2.664l-2.441 2.988c-1.196-1.128-2.524-1.692-3.984-1.692-1.268 0-1.902.42-1.902 1.26 0 .336.131.612.394.828.264.216.754.468 1.472.756l1.723.72c1.771.72 3.039 1.488 3.805 2.304.789.816 1.184 1.86 1.184 3.132 0 1.776-.658 3.168-1.974 4.176-1.292 1.008-2.943 1.512-4.953 1.512-3.183 0-5.636-1.152-7.359-3.456ZM212.957 46.324h-5.528l-7.143-9.864v9.864h-4.845v-27h4.845V36.1l6.389-7.596h5.743l-6.676 7.884 7.215 9.936ZM215.526 46.324v-17.82h4.845v17.82h-4.845Zm-.682-24.3c0-.864.299-1.584.897-2.16.598-.576 1.328-.864 2.19-.864.861 0 1.591.288 2.189.864.622.576.933 1.296.933 2.16 0 .84-.311 1.548-.933 2.124-.598.576-1.328.864-2.189.864-.862 0-1.592-.288-2.19-.864-.598-.576-.897-1.284-.897-2.124ZM241.496 35.272v11.052h-4.809V35.92c0-1.032-.311-1.86-.934-2.484-.598-.648-1.387-.972-2.368-.972-.982 0-1.795.324-2.441.972-.622.624-.933 1.452-.933 2.484v10.404h-4.846v-17.82h4.451v1.62c1.34-1.344 3.075-2.016 5.204-2.016 2.058 0 3.685.648 4.882 1.944 1.196 1.296 1.794 3.036 1.794 5.22ZM259.549 28.504H264v15.84c0 2.856-.826 5.052-2.477 6.588-1.651 1.536-3.888 2.304-6.712 2.304-3.326 0-6.233-1.104-8.722-3.312l2.549-3.384c2.058 1.536 3.984 2.304 5.779 2.304 1.459 0 2.608-.36 3.445-1.08.862-.72 1.292-1.764 1.292-3.132v-.972c-1.292 1.416-3.098 2.124-5.419 2.124-2.465 0-4.499-.828-6.102-2.484-1.604-1.656-2.405-3.78-2.405-6.372 0-2.616.801-4.74 2.405-6.372 1.603-1.632 3.637-2.448 6.102-2.448 2.584 0 4.522.876 5.814 2.628v-2.232Zm-.323 8.352c0-1.464-.43-2.592-1.292-3.384-.837-.816-1.902-1.224-3.194-1.224-1.34 0-2.441.42-3.303 1.26-.861.84-1.292 1.968-1.292 3.384s.431 2.568 1.292 3.456c.886.888 1.987 1.332 3.303 1.332 1.268 0 2.333-.432 3.194-1.296.862-.864 1.292-2.04 1.292-3.528Z"/></g><defs><clipPath id="b"><rect width="63.81" height="64" x="4" y="3" fill="#fff" rx="12"/></clipPath><clipPath id="c"><path fill="#fff" d="M4 3h63.81v64H4z"/></clipPath><clipPath id="h"><path fill="#fff" d="M11.976 35h31.905v24H11.976z"/></clipPath><clipPath id="j"><path fill="#fff" d="M27.929 11h31.905v24H27.929z"/></clipPath><clipPath id="l"><path fill="#fff" d="M35.905 13h15.953v16H35.905z"/></clipPath><radialGradient id="d" cx="0" cy="0" r="1" gradientTransform="rotate(51.23 -14.377 52.945) scale(46.1738 46.1444)" gradientUnits="userSpaceOnUse"><stop stop-color="#89B3ED"/><stop offset="1" stop-color="#3980E2"/></radialGradient><radialGradient id="e" cx="0" cy="0" r="1" gradientTransform="rotate(51.23 -14.377 52.945) scale(46.1738 46.1444)" gradientUnits="userSpaceOnUse"><stop offset=".375" stop-color="#89B3ED"/><stop offset=".729" stop-color="#3980E2"/></radialGradient><radialGradient id="f" cx="0" cy="0" r="1" gradientTransform="rotate(51.23 -14.377 52.945) scale(46.1738 46.1444)" gradientUnits="userSpaceOnUse"><stop offset=".375" stop-color="#89B3ED"/><stop offset=".729" stop-color="#3980E2"/></radialGradient><radialGradient id="g" cx="0" cy="0" r="1" gradientTransform="rotate(47.491 -17.282 56.31) scale(42.0528 42.0421)" gradientUnits="userSpaceOnUse"><stop offset=".375" stop-color="#89B3ED"/><stop offset=".729" stop-color="#3980E2"/></radialGradient><filter id="a" width="268" height="72" x="0" y="0" color-interpolation-filters="sRGB" filterUnits="userSpaceOnUse"><feFlood flood-opacity="0" result="BackgroundImageFix"/><feColorMatrix in="SourceAlpha" result="hardAlpha" values="0 0 0 0 0 0 0 0 0 0 0 0 0 0 0 0 0 0 127 0"/><feOffset dy="1"/><feGaussianBlur stdDeviation="2"/><feComposite in2="hardAlpha" operator="out"/><feColorMatrix values="0 0 0 0 0 0 0 0 0 0 0 0 0 0 0 0 0 0 0.08 0"/><feBlend in2="BackgroundImageFix" result="effect1_dropShadow_149_28393"/><feBlend in="SourceGraphic" in2="effect1_dropShadow_149_28393" result="shape"/></filter><filter id="i" width="39.905" height="32.444" x="7.976" y="32" color-interpolation-filters="sRGB" filterUnits="userSpaceOnUse"><feFlood flood-opacity="0" result="BackgroundImageFix"/><feColorMatrix in="SourceAlpha" result="hardAlpha" values="0 0 0 0 0 0 0 0 0 0 0 0 0 0 0 0 0 0 127 0"/><feOffset dy="1"/><feGaussianBlur stdDeviation="2"/><feComposite in2="hardAlpha" operator="out"/><feColorMatrix values="0 0 0 0 0 0 0 0 0 0 0 0 0 0 0 0 0 0 0.08 0"/><feBlend in2="BackgroundImageFix" result="effect1_dropShadow_149_28393"/><feBlend in="SourceGraphic" in2="effect1_dropShadow_149_28393" result="shape"/></filter><filter id="k" width="39.905" height="32.444" x="23.929" y="8" color-interpolation-filters="sRGB" filterUnits="userSpaceOnUse"><feFlood flood-opacity="0" result="BackgroundImageFix"/><feColorMatrix in="SourceAlpha" result="hardAlpha" values="0 0 0 0 0 0 0 0 0 0 0 0 0 0 0 0 0 0 127 0"/><feOffset dy="1"/><feGaussianBlur stdDeviation="2"/><feComposite in2="hardAlpha" operator="out"/><feColorMatrix values="0 0 0 0 0 0 0 0 0 0 0 0 0 0 0 0 0 0 0.08 0"/><feBlend in2="BackgroundImageFix" result="effect1_dropShadow_149_28393"/><feBlend in="SourceGraphic" in2="effect1_dropShadow_149_28393" result="shape"/></filter></defs></svg>