<svg width="32" height="31" viewBox="0 0 32 31" fill="none" xmlns="http://www.w3.org/2000/svg">
<g clip-path="url(#clip0_251_2177)">
<path d="M16 1.7733C23.581 1.7733 29.7267 7.91897 29.7267 15.5C29.7267 23.081 23.581 29.2267 16 29.2267C8.41896 29.2267 2.2733 23.081 2.2733 15.5C2.2733 7.91897 8.41896 1.7733 16 1.7733Z" stroke="#56C75A" stroke-width="2.74534"/>
<path fill-rule="evenodd" clip-rule="evenodd" d="M13.4364 21.2666C13.8135 21.6531 14.4349 21.6531 14.812 21.2666L23.9736 11.8753C24.3377 11.502 24.3377 10.9065 23.9736 10.5333L23.1941 9.73434C22.8171 9.34781 22.1956 9.34781 21.8185 9.73434L14.1242 17.6216L10.1813 13.5798C9.80422 13.1932 9.18277 13.1932 8.8057 13.5798L8.02626 14.3788C7.66216 14.752 7.66216 15.3475 8.02626 15.7207L13.4364 21.2666Z" fill="#56C75A"/>
</g>
<defs>
<clipPath id="clip0_251_2177">
<rect width="30.1987" height="30.1987" fill="white" transform="translate(0.900635 0.400635)"/>
</clipPath>
</defs>
</svg>
